<svg xmlns="http://www.w3.org/2000/svg" xmlns:xlink="http://www.w3.org/1999/xlink" width="369" height="77" viewBox="0 0 369 77">
    <defs>
        <path id="a" d="M25.07.074H0V76.49h25.07V.074z"/>
        <path id="c" d="M.304 76.607h25.07V.19H.304v76.416z"/>
    </defs>
    <g fill="none" fill-rule="evenodd">
        <path fill="#0E367C" d="M147.749 37.787c.8 0 1.571-.06 2.313-.179.74-.118 1.393-.349 1.957-.692.563-.341 1.016-.825 1.357-1.45.34-.625.512-1.444.512-2.456 0-1.011-.172-1.83-.512-2.455a3.776 3.776 0 0 0-1.357-1.45c-.564-.342-1.216-.573-1.957-.693a14.641 14.641 0 0 0-2.313-.178h-5.427v9.553h5.427zm1.912-15c1.987 0 3.677.29 5.072.87 1.393.581 2.528 1.348 3.402 2.3a8.843 8.843 0 0 1 1.913 3.259c.4 1.22.6 2.485.6 3.794 0 1.28-.2 2.538-.6 3.773a8.808 8.808 0 0 1-1.913 3.281c-.874.953-2.009 1.718-3.402 2.3-1.395.58-3.085.87-5.072.87h-7.339v11.428h-6.984V22.787h14.323zM169.882 22.787V48.77h15.48v5.892H162.9V22.787zM207.199 42.34l-4.003-11.696h-.09l-4.136 11.697h8.229zm-.4-19.553l11.876 31.875h-7.25l-2.402-7.098h-11.877l-2.491 7.098h-7.028l12.01-31.875h7.161zM214.85 28.68v-5.893h26.022v5.893h-9.52v25.982h-6.983V28.68zM266.85 22.787v5.893h-15.347v7.366h13.3v5.446h-13.3v13.17h-6.984V22.787zM276.125 42.765a10.553 10.553 0 0 0 1.49 3.415 7.636 7.636 0 0 0 2.67 2.433c1.096.61 2.43.915 4.003.915 1.571 0 2.906-.305 4.003-.915a7.643 7.643 0 0 0 2.67-2.433 10.572 10.572 0 0 0 1.49-3.415c.31-1.265.466-2.567.466-3.906 0-1.399-.155-2.753-.467-4.063-.31-1.31-.808-2.478-1.49-3.504a7.572 7.572 0 0 0-2.669-2.455c-1.097-.61-2.432-.916-4.003-.916-1.573 0-2.907.306-4.004.916a7.565 7.565 0 0 0-2.669 2.455c-.682 1.026-1.179 2.195-1.49 3.504a17.514 17.514 0 0 0-.467 4.063c0 1.34.156 2.641.467 3.906m-6.383-10.536c.712-2.038 1.735-3.817 3.07-5.335 1.334-1.517 2.972-2.708 4.914-3.571 1.943-.863 4.13-1.295 6.562-1.295 2.46 0 4.655.432 6.583 1.295 1.927.863 3.559 2.054 4.893 3.571 1.334 1.518 2.357 3.297 3.07 5.335.711 2.04 1.067 4.249 1.067 6.63 0 2.321-.356 4.486-1.067 6.495-.713 2.009-1.736 3.758-3.07 5.246-1.334 1.488-2.966 2.656-4.893 3.504-1.928.848-4.122 1.272-6.583 1.272-2.432 0-4.62-.424-6.562-1.272-1.942-.848-3.58-2.016-4.915-3.504-1.334-1.488-2.357-3.237-3.07-5.246-.71-2.009-1.067-4.174-1.067-6.495 0-2.381.356-4.59 1.068-6.63M318.03 37.207c1.601 0 2.803-.357 3.603-1.071.8-.715 1.201-1.875 1.201-3.483 0-1.547-.4-2.67-1.2-3.37-.801-.699-2.003-1.05-3.604-1.05h-7.651v8.974h7.65zm2.491-14.42c1.423 0 2.706.231 3.847.692 1.142.462 2.12 1.094 2.936 1.898a8.248 8.248 0 0 1 1.869 2.79 8.987 8.987 0 0 1 .645 3.415c0 1.875-.394 3.498-1.18 4.866-.785 1.369-2.068 2.41-3.847 3.125v.09c.86.238 1.572.602 2.135 1.093a6.061 6.061 0 0 1 1.38 1.74c.355.67.614 1.407.778 2.211.162.803.273 1.607.333 2.41.03.507.06 1.102.09 1.786.028.685.08 1.384.155 2.098.074.714.192 1.392.356 2.032.163.64.407 1.183.734 1.63h-6.984c-.386-1.012-.623-2.217-.712-3.617a54.183 54.183 0 0 0-.4-4.018c-.238-1.666-.742-2.886-1.512-3.66-.772-.774-2.032-1.162-3.782-1.162h-6.983v12.456h-6.984V22.787h17.126zM343.654 22.787l7.429 21.92h.089l7.028-21.92h9.83v31.875h-6.538v-22.59h-.09l-7.783 22.59h-5.383l-7.785-22.366h-.089v22.366h-6.538V22.787z"/>
        <g transform="translate(.628 .362)">
            <mask id="b" fill="#fff">
                <use xlink:href="#a"/>
            </mask>
            <path fill="#0E367C" d="M0 .074h25.07v3.499H4.225v69.419H25.07v3.498H0z" mask="url(#b)"/>
        </g>
        <g transform="translate(96.359 .362)">
            <mask id="d" fill="#fff">
                <use xlink:href="#c"/>
            </mask>
            <path fill="#0E367C" d="M.304 73.108H21.15V3.69H.304V.191h25.07v76.416H.304z" mask="url(#d)"/>
        </g>
        <path fill="#0080FF" d="M101.67 49.96c-4.478 1.885-8.752 2.923-12.032 2.923-2.647 0-4.496-.656-5.498-1.952-1.097-1.418-1.254-3.7-.456-6.826l2.597-11.83c1.325-5.732.787-10.16-1.595-13.168-2.09-2.641-5.448-3.979-9.987-3.979-4.803 0-9.28 1.718-13.64 5.242-1.79-3.48-5.243-5.242-10.282-5.242-4.164 0-8.232 1.482-12.106 4.409-1.577-2.837-5.69-4.796-10.546-4.796-2.35 0-4.746.438-7.118 1.305l-.66.242-1.848 8.885 2.22-.928c3.188-1.33 5.729-1.249 6.904.235.84 1.058 1.035 2.812.554 4.923l-6.159 25.52h10.353l4.104-17.778c2.325-8.795 5.997-12.893 11.554-12.893 1.469 0 2.67.5 3.386 1.406.889 1.121.987 3.327.283 6.383l-5.285 22.882h10.336l4.857-21.035c1.34-5.672 5.72-9.636 10.65-9.636 1.53 0 2.726.493 3.463 1.422.886 1.121.982 3.32.278 6.37l-2.972 12.998c-1.135 5.27-.427 9.534 2.097 12.674 2.567 3.191 6.958 4.948 12.367 4.948 4.481 0 9.402-1.206 13.85-3.397l.565-.278 1.958-9.955-2.193.925z"/>
    </g>
</svg>
