<?xml version="1.0" standalone="no"?>
<!DOCTYPE svg PUBLIC "-//W3C//DTD SVG 20010904//EN"
 "http://www.w3.org/TR/2001/REC-SVG-20010904/DTD/svg10.dtd">
<svg version="1.0" xmlns="http://www.w3.org/2000/svg"
 width="885.000000pt" height="496.000000pt" viewBox="0 0 885.000000 496.000000"
 preserveAspectRatio="xMidYMid meet">
<metadata>
Created by potrace 1.15, written by Peter Selinger 2001-2017
</metadata>
<g transform="translate(0.000000,496.000000) scale(0.100000,-0.100000)"
fill="#000000" stroke="none">
<path d="M1120 2525 l0 -685 225 0 225 0 0 30 0 30 -187 2 -188 3 0 620 0 620
188 3 187 2 0 30 0 30 -225 0 -225 0 0 -685z"/>
<path d="M2850 3180 l0 -30 188 -2 187 -3 3 -622 2 -623 -190 0 -190 0 0 -30
0 -30 225 0 225 0 0 685 0 685 -225 0 -225 0 0 -30z"/>
<path d="M1517 2938 c-25 -7 -39 -17 -42 -32 -18 -81 -25 -119 -22 -123 2 -2
16 1 31 7 41 15 102 12 120 -6 9 -8 16 -32 16 -53 0 -30 -79 -384 -106 -473
-5 -16 4 -18 85 -18 86 0 91 1 96 23 45 198 88 363 101 389 30 60 66 100 108
119 53 24 87 24 120 -2 41 -32 40 -41 -69 -506 -5 -23 -4 -23 84 -23 l89 0 32
138 c72 314 86 344 176 388 85 42 154 16 154 -58 0 -15 -16 -95 -35 -178 -37
-161 -42 -219 -23 -281 34 -115 188 -174 360 -138 73 15 146 48 152 68 10 35
29 142 25 145 -2 2 -42 -9 -89 -25 -113 -38 -206 -40 -246 -5 -36 31 -35 75 5
259 17 76 31 162 31 193 0 57 -22 115 -57 146 -78 71 -264 63 -369 -17 l-34
-26 -30 35 c-41 46 -85 59 -179 54 -62 -4 -89 -11 -135 -36 l-58 -31 -37 28
c-20 16 -51 34 -70 40 -41 13 -131 13 -184 -1z"/>
<path d="M6121 2803 c-204 -72 -229 -419 -38 -537 39 -24 62 -30 128 -34 128
-7 212 37 267 142 24 45 27 62 27 151 0 92 -2 104 -30 155 -33 60 -96 114
-153 130 -53 14 -149 11 -201 -7z m193 -107 c43 -28 70 -92 70 -171 1 -117
-48 -184 -141 -192 -102 -9 -163 63 -163 192 0 128 61 201 162 192 26 -2 58
-11 72 -21z"/>
<path d="M3550 2526 l0 -286 60 0 60 0 0 99 0 98 98 6 c105 6 144 16 181 50
82 75 62 240 -34 291 -35 18 -61 21 -202 24 l-163 3 0 -285z m304 163 c26 -21
35 -65 20 -104 -11 -28 -60 -45 -134 -45 l-70 0 0 85 0 85 79 0 c64 0 83 -4
105 -21z"/>
<path d="M4040 2525 l0 -285 205 0 205 0 0 50 0 50 -140 0 -140 0 0 235 0 235
-65 0 -65 0 0 -285z"/>
<path d="M4618 2577 c-48 -127 -97 -256 -108 -284 l-20 -53 63 0 63 0 23 65
23 66 107 -3 106 -3 21 -60 21 -60 66 -3 65 -3 -49 133 c-27 73 -75 202 -107
286 l-57 152 -65 0 -65 0 -87 -233z m186 -4 c16 -49 31 -94 33 -100 4 -10 -13
-13 -66 -13 -39 0 -71 3 -71 8 0 14 65 192 70 192 3 0 19 -39 34 -87z"/>
<path d="M4980 2760 l0 -50 85 0 85 0 0 -235 0 -235 65 0 65 0 0 235 0 235 85
0 85 0 0 50 0 50 -235 0 -235 0 0 -50z"/>
<path d="M5520 2525 l0 -285 60 0 60 0 0 120 0 120 120 0 120 0 0 45 0 45
-120 0 -120 0 0 70 0 70 140 0 140 0 0 50 0 50 -200 0 -200 0 0 -285z"/>
<path d="M6580 2526 l0 -286 60 0 60 0 0 110 0 110 85 0 c109 0 130 -16 140
-106 13 -120 9 -114 76 -114 l59 0 -6 48 c-19 152 -23 166 -55 195 -29 27 -30
29 -12 42 10 8 21 15 24 15 13 0 39 75 39 114 0 48 -27 96 -73 130 -26 19 -44
21 -213 24 l-184 3 0 -285z m326 163 c24 -27 25 -92 1 -116 -14 -14 -38 -19
-112 -21 l-95 -4 0 81 0 81 93 0 c82 0 96 -3 113 -21z"/>
<path d="M7120 2525 l0 -285 60 0 60 0 2 198 3 197 69 -198 70 -198 49 3 50 3
68 195 68 195 0 -197 1 -198 60 0 60 0 0 285 0 285 -88 0 -88 0 -63 -196 c-35
-107 -65 -194 -67 -192 -2 2 -32 89 -67 193 l-64 190 -92 3 -91 3 0 -286z"/>
</g>
</svg>
